<svg xmlns="http://www.w3.org/2000/svg" viewBox="0 0 69.48 20.84"><title>Spotify Logo</title><g id="spotify-logo" data-name="Spotify Logo"><path class="cls-1" d="M10.42,0A10.42,10.42,0,1,0,20.84,10.42,10.42,10.42,0,0,0,10.42,0ZM15.2,15a.65.65,0,0,1-.89.22c-2.45-1.5-5.53-1.83-9.15-1A.65.65,0,1,1,4.86,13c4-.91,7.37-.52,10.12,1.16A.65.65,0,0,1,15.2,15Zm1.28-2.84a.81.81,0,0,1-1.12.27A13.68,13.68,0,0,0,5,11.24.81.81,0,1,1,4.5,9.69a15.2,15.2,0,0,1,11.71,1.38A.81.81,0,0,1,16.47,12.19Zm.11-3c-3.36-2-8.9-2.18-12.11-1.2a1,1,0,1,1-.57-1.87c3.68-1.12,9.8-.9,13.67,1.39a1,1,0,0,1-1,1.68Z"/><path class="cls-1" d="M28.35,9.62c-1.8-.43-2.12-.73-2.12-1.36s.56-1,1.4-1a4.09,4.09,0,0,1,2.46.93.12.12,0,0,0,.09,0,.12.12,0,0,0,.08,0l.88-1.24a.12.12,0,0,0,0-.16,5.31,5.31,0,0,0-3.46-1.2c-1.94,0-3.3,1.17-3.3,2.83s1.17,2.42,3.19,2.91c1.72.4,2,.73,2,1.32S29,13.7,28,13.7a4.13,4.13,0,0,1-2.86-1.18.12.12,0,0,0-.09,0,.12.12,0,0,0-.08,0l-1,1.17a.12.12,0,0,0,0,.16,5.87,5.87,0,0,0,4,1.52c2.09,0,3.45-1.14,3.45-2.91C31.43,11,30.54,10.15,28.35,9.62Z"/><path class="cls-1" d="M36.17,7.84A2.82,2.82,0,0,0,33.9,8.93V8.11A.12.12,0,0,0,33.79,8H32.18a.12.12,0,0,0-.12.12v9.16a.12.12,0,0,0,.12.12h1.61a.12.12,0,0,0,.12-.12V14.38a2.89,2.89,0,0,0,2.27,1,3.48,3.48,0,0,0,3.39-3.78A3.48,3.48,0,0,0,36.17,7.84Zm1.52,3.78a1.94,1.94,0,0,1-1.89,2.14,2,2,0,0,1-1.93-2.14A2,2,0,0,1,35.8,9.48,2,2,0,0,1,37.69,11.62Z"/><path class="cls-1" d="M43.94,7.84a3.79,3.79,0,1,0,3.86,3.78A3.8,3.8,0,0,0,43.94,7.84Zm0,5.94a2,2,0,0,1-2-2.16,2,2,0,0,1,2-2.13,2.06,2.06,0,0,1,2,2.16A2,2,0,0,1,43.94,13.78Z"/><path class="cls-1" d="M52.43,8H50.66V6.18a.12.12,0,0,0-.12-.12H48.93a.12.12,0,0,0-.12.12V8H48a.12.12,0,0,0-.12.12V9.49a.12.12,0,0,0,.12.12h.77V13.2A1.92,1.92,0,0,0,51,15.38,2.94,2.94,0,0,0,52.46,15a.12.12,0,0,0,.06-.1V13.58a.12.12,0,0,0-.17-.11,2,2,0,0,1-.95.23c-.52,0-.75-.23-.75-.76V9.61h1.77a.12.12,0,0,0,.12-.12V8.11A.12.12,0,0,0,52.43,8Z"/><path class="cls-1" d="M58.61,8V7.78c0-.65.25-.95.81-.95a2.72,2.72,0,0,1,.91.17.12.12,0,0,0,.15-.11V5.53a.12.12,0,0,0-.08-.11,4.42,4.42,0,0,0-1.34-.19c-1.49,0-2.27.84-2.27,2.42V8H56a.12.12,0,0,0-.12.12V9.49a.12.12,0,0,0,.12.12h.77v5.53a.12.12,0,0,0,.12.12h1.61a.12.12,0,0,0,.12-.12V9.61h1.5l2.3,5.52c-.26.58-.52.7-.87.7a1.86,1.86,0,0,1-.89-.25.12.12,0,0,0-.09,0,.12.12,0,0,0-.07.06L60,16.83A.12.12,0,0,0,60,17a3.39,3.39,0,0,0,1.72.44c1.19,0,1.85-.55,2.43-2L67,8.16A.12.12,0,0,0,66.86,8H65.18a.12.12,0,0,0-.11.08L63.35,13,61.47,8.08A.12.12,0,0,0,61.36,8Z"/><rect class="cls-1" x="53.3" y="7.99" width="1.85" height="7.26" rx=".12" ry=".12"/><circle class="cls-1" cx="54.23" cy="5.95" r="1.16"/><path class="cls-1" d="M68.34,10.25a1.14,1.14,0,1,1,1.14-1.14A1.13,1.13,0,0,1,68.34,10.25Zm0-2.16a1,1,0,1,0,1,1A1,1,0,0,0,68.35,8.09Zm.25,1.14.32.45h-.27l-.29-.41h-.25v.41h-.23V8.49h.53c.28,0,.46.14.46.38A.35.35,0,0,1,68.6,9.23Zm-.19-.54h-.3v.38h.3c.15,0,.24-.07.24-.19S68.56,8.69,68.41,8.69Z"/></g></svg>