<svg width="22" height="22" viewBox="0 0 22 22" version="1.1" xmlns="http://www.w3.org/2000/svg" xmlns:xlink="http://www.w3.org/1999/xlink"><title>Fill 1</title><desc>Created with Sketch.</desc><g id="Symbols" stroke="none" stroke-width="1" fill="none" fill-rule="evenodd"><g id="Search" transform="translate(-316.000000, 0.000000)" fill="#FFF"><path d="M337.730556,20.437551 L332.441689,15.1486837 C333.752653,13.5502602 334.542745,11.5029133 334.542745,9.27137245 C334.542745,4.15306122 330.389684,0 325.271372,0 C320.148684,0 316,4.15306122 316,9.27137245 C316,14.3896837 320.148684,18.5427449 325.271372,18.5427449 C327.502913,18.5427449 329.545658,17.7570306 331.144082,16.4460663 L336.432949,21.7305561 C336.792245,22.0899082 337.371485,22.0899082 337.730556,21.7305561 C338.089908,21.3758622 338.089908,20.7922449 337.730556,20.437551 Z M325.271372,16.697551 C321.172245,16.697551 317.840872,13.3661224 317.840872,9.27137245 C317.840872,5.17662245 321.172245,1.84087245 325.271372,1.84087245 C329.366122,1.84087245 332.702153,5.17662245 332.702153,9.27137245 C332.702153,13.3661224 329.366122,16.697551 325.271372,16.697551 Z" id="Fill-1"/></g></g></svg>