<svg width="18" height="18" viewBox="0 0 18 18" xmlns="http://www.w3.org/2000/svg"><path d="M14.178 8.011c-2.74-1.616-7.259-1.764-9.874-.976a.789.789 0 1 1-.462-1.511c3.003-.905 7.994-.73 11.148 1.13a.787.787 0 0 1 .278 1.081.798.798 0 0 1-1.09.276zm-.09 2.394a.666.666 0 0 1-.91.217c-2.285-1.395-5.768-1.799-8.47-.984a.658.658 0 1 1-.385-1.26c3.086-.93 6.924-.48 9.548 1.122.311.19.41.596.218.905zm-1.04 2.299a.531.531 0 0 1-.728.175c-1.996-1.212-4.508-1.485-7.467-.814a.525.525 0 1 1-.236-1.026c3.238-.735 6.015-.418 8.256.941.25.152.328.476.176.724zM9.15.527c-4.694 0-8.5 3.78-8.5 8.442 0 4.663 3.806 8.443 8.5 8.443 4.695 0 8.5-3.78 8.5-8.443 0-4.662-3.805-8.442-8.5-8.442z" fill="#FFF" fill-rule="evenodd"/></svg>